# xmcd
#
# Track frame offsets: 
#        150
#        9302
#        25459
#        31837
#        41333
#        54939
#        59474
#        73647
#        87962
#        106103
#        124103
#        127239
#        141180
#        150747
#        162066
#        184171
#        211406
#        233375
#        255909
#        277027
#
# Disc length: 4329 seconds
#
# Revision: 1
# Processed by: cddbd v1.5.2PL0 Copyright (c) Steve Scherf et al.
# Submitted via: ExactAudioCopyFreeDBPlugin 1.0
#
DISCID=0810e714
DTITLE=Various Artist - Slam - Nightdrive
DYEAR=2005
DGENRE=Electronic
TTITLE0=Carl Craig - Darkness
TTITLE1=Luciano - Octogonal
TTITLE2=Slam - Genex
TTITLE3=Alex Smoke - Don't See The Point
TTITLE4=Dominik Eulberg - Rotbauchunken (Robag Wruhme's - Bombina Bumm
TTITLE4=Remix)
TTITLE5=Nathan Fake - Dinamo (Dominik Eulberg Dinamo Remix)
TTITLE6=Slam feat. Tyrone Palmer - This World Acapella
TTITLE7=Luci - Mullet Is In Da House
TTITLE8=Robert Drewek vs. Tomie Nevada - Done In Two Days
TTITLE9=Marc Houle - Demor
TTITLE10=Slam - Kill The Pain (Marc Houle Vocal Mix)
TTITLE11=Slam - Kill The Pain Acapella
TTITLE12=Guido Schneider and Andre Galuzzi - Survivor
TTITLE13=Dub Kult - On and On
TTITLE14=Perc - Splashy
TTITLE15=Marc O Tool - Gear
TTITLE16=Mathias Schaffhauser - Coincidance (Trentemoller Remix)
TTITLE17=John Spring - Strange (John Springs 2005 Revision)
TTITLE18=Lee Van Dowski and Tsack - Asem
TTITLE19=Black Strobe - Nazi Trance Fuck Off! (James Holden Remix)
EXTD=
EXTT0=
EXTT1=
EXTT2=
EXTT3=
EXTT4=
EXTT5=
EXTT6=
EXTT7=
EXTT8=
EXTT9=
EXTT10=
EXTT11=
EXTT12=
EXTT13=
EXTT14=
EXTT15=
EXTT16=
EXTT17=
EXTT18=
EXTT19=
PLAYORDER=
